HIERARCHY
ROOT root
{
	OFFSET 0.000000 0.000000 0.000000
	CHANNELS 6 Xposition Yposition Zposition Zrotation Yrotation Xrotation
	JOINT lhip
	{
		OFFSET 0.058581 -0.082280 -0.017664
		CHANNELS 3 Zrotation Yrotation Xrotation
		JOINT lknee
		{
			OFFSET 0.043451 -0.386469 0.008037
			CHANNELS 3 Zrotation Yrotation Xrotation
			JOINT lankle
			{
				OFFSET -0.014790 -0.426874 -0.037428
				CHANNELS 3 Zrotation Yrotation Xrotation
				JOINT ltoe
				{
					OFFSET 0.041054 -0.060286 0.122042
					CHANNELS 3 Zrotation Yrotation Xrotation
					End Site
					{
						OFFSET 0.000000 0.000000 0.000000
					}
				}
			}
		}
	}
	JOINT rhip
	{
		OFFSET -0.060310 -0.090513 -0.013543
		CHANNELS 3 Zrotation Yrotation Xrotation
		JOINT rknee
		{
			OFFSET -0.043257 -0.383688 -0.004843
			CHANNELS 3 Zrotation Yrotation Xrotation
			JOINT rankle
			{
				OFFSET 0.019056 -0.420046 -0.034562
				CHANNELS 3 Zrotation Yrotation Xrotation
				JOINT rtoe
				{
					OFFSET -0.034840 -0.062106 0.130323
					CHANNELS 3 Zrotation Yrotation Xrotation
					End Site
					{
						OFFSET 0.000000 0.000000 0.000000
					}
				}
			}
		}
	}
	JOINT lowerback
	{
		OFFSET 0.004439 0.124404 -0.038385
		CHANNELS 3 Zrotation Yrotation Xrotation
		JOINT upperback
		{
			OFFSET 0.004488 0.137956 0.026820
			CHANNELS 3 Zrotation Yrotation Xrotation
			JOINT chest
			{
				OFFSET -0.002265 0.056032 0.002855
				CHANNELS 3 Zrotation Yrotation Xrotation
				JOINT lowerneck
				{
					OFFSET -0.013390 0.211636 -0.033468
					CHANNELS 3 Zrotation Yrotation Xrotation
					JOINT upperneck
					{
						OFFSET 0.010113 0.088937 0.050410
						CHANNELS 3 Zrotation Yrotation Xrotation
						End Site
						{
							OFFSET 0.000000 0.000000 0.000000
						}
					}
				}
				JOINT lclavicle
				{
					OFFSET 0.071702 0.114000 -0.018898
					CHANNELS 3 Zrotation Yrotation Xrotation
					JOINT lshoulder
					{
						OFFSET 0.122921 0.045205 -0.019046
						CHANNELS 3 Zrotation Yrotation Xrotation
						JOINT lelbow
						{
							OFFSET 0.255332 -0.015649 -0.022946
							CHANNELS 3 Zrotation Yrotation Xrotation
							JOINT lwrist
							{
								OFFSET 0.265709 0.012698 -0.007375
								CHANNELS 3 Zrotation Yrotation Xrotation
								End Site
								{
									OFFSET 0.000000 0.000000 0.000000
								}
							}
						}
					}
				}
				JOINT rclavicle
				{
					OFFSET -0.082954 0.112472 -0.023707
					CHANNELS 3 Zrotation Yrotation Xrotation
					JOINT rshoulder
					{
						OFFSET -0.113228 0.046853 -0.008472
						CHANNELS 3 Zrotation Yrotation Xrotation
						JOINT relbow
						{
							OFFSET -0.260127 -0.014369 -0.031269
							CHANNELS 3 Zrotation Yrotation Xrotation
							JOINT rwrist
							{
								OFFSET -0.269108 0.006794 -0.006027
								CHANNELS 3 Zrotation Yrotation Xrotation
								End Site
								{
									OFFSET 0.000000 0.000000 0.000000
								}
							}
						}
					}
				}
			}
		}
	}
}
MOTION
Frames: 14
Frame Time: 0.033333
0.240113 -0.352948 0.954542 -175.690755 -1.660091 94.873746 6.108713 -0.652852 -22.574394 -6.070954 -2.522003 20.316002 -0.819590 -4.266195 -10.410447 0.000000 -0.000000 0.000000 -11.181632 -8.355388 -20.399452 -2.430925 -10.994593 25.599936 4.361670 0.087613 -13.541143 0.000000 -0.000000 0.000000 3.294285 4.167561 17.768154 2.399772 -5.339596 9.918340 1.189810 -0.526871 -3.935742 1.194847 8.847635 22.962517 5.213204 2.925172 13.645337 -16.392084 -24.672232 2.020712 -74.969403 -26.405793 26.396266 -0.966919 -30.665643 11.256168 -10.987700 7.209723 -29.804743 15.952565 21.247882 6.966145 72.389282 21.316982 20.354281 -13.102320 33.497508 -15.928800 2.072474 -0.805728 -53.446013 
0.239728 -0.353246 0.954726 -174.593408 -1.877423 94.879108 5.854544 -0.819559 -22.586221 -6.186160 -2.863059 19.853632 -0.976266 -4.812132 -10.219918 0.000000 -0.000000 0.000000 -11.442639 -8.785516 -20.122177 -2.692894 -11.586727 25.672183 4.436508 0.114579 -13.668236 0.000000 -0.000000 0.000000 3.538148 4.356637 17.808068 2.464382 -5.290703 9.862511 1.232856 -0.490516 -4.038332 1.331246 8.762480 22.817088 5.182968 2.711966 13.526211 -16.258351 -24.640781 1.889207 -74.969274 -26.394616 26.366106 -1.293724 -30.615434 11.992957 -12.230705 6.195017 -30.028211 15.845164 21.262538 7.009931 72.504570 21.097524 20.266349 -13.293862 33.836920 -16.044733 1.675115 -0.815390 -53.638141 
0.239131 -0.353636 0.954802 -173.534575 -2.082584 94.867607 5.585717 -0.945018 -22.671127 -6.390385 -3.370406 19.580423 -1.089118 -5.220365 -9.921921 0.000000 -0.000000 0.000000 -11.720332 -9.121320 -19.841377 -2.801344 -11.880069 25.698087 4.465023 -0.248040 -13.769740 0.000000 -0.000000 0.000000 3.734119 4.475180 17.884071 2.518953 -5.254959 9.578552 1.286372 -0.414384 -3.895362 1.389314 8.671808 22.681201 5.225781 2.886855 13.427854 -16.293871 -24.820046 1.827195 -74.806880 -26.473810 26.528870 -1.464152 -30.442318 11.857423 -11.116982 6.489970 -30.090610 15.729460 21.301628 6.900715 72.527997 20.874755 20.372257 -13.466186 34.060055 -16.347216 1.133842 -1.051015 -54.046554 
0.238633 -0.353940 0.954659 -172.505625 -2.190933 94.812898 5.387095 -1.143041 -22.794162 -6.464787 -3.835306 19.497367 -1.315303 -5.531861 -9.818325 0.000000 -0.000000 0.000000 -11.868290 -9.501526 -19.527858 -3.008843 -12.374854 25.804944 4.465198 -0.328021 -13.934011 0.000000 -0.000000 0.000000 4.010129 4.748922 17.832155 2.610803 -5.239845 9.503623 1.432156 -0.515059 -3.789858 1.298766 8.763025 22.728789 5.252268 2.992230 12.950801 -16.408863 -25.197277 1.936263 -74.507428 -26.475485 26.424612 -1.390298 -30.621954 11.670342 -11.202424 6.573182 -30.047773 15.727487 21.459621 7.001743 72.149044 20.808720 20.065075 -13.410735 34.375120 -16.424516 0.780751 -1.082312 -54.089104 
0.237392 -0.354231 0.954365 -171.446456 -2.421026 94.797051 4.976784 -1.589344 -22.951763 -6.405072 -4.262590 19.371136 -1.334319 -5.671433 -9.614605 0.000000 -0.000000 0.000000 -12.265198 -9.949762 -19.276447 -3.051846 -12.745497 25.921044 4.506573 -0.512130 -14.055049 0.000000 -0.000000 0.000000 4.214922 4.736334 17.743086 2.559860 -5.339693 9.423087 1.449340 -0.500809 -3.726732 1.239289 8.800629 22.590142 5.294339 3.192315 12.613484 -16.445947 -25.264491 1.857389 -74.484799 -26.389505 26.360436 -1.072598 -30.821537 11.636251 -11.767987 7.436627 -29.517075 15.818600 21.452841 6.891250 71.978293 20.801225 19.989683 -13.384770 34.238897 -16.386189 0.754946 -1.755991 -53.077154 
0.236892 -0.354304 0.954046 -170.692292 -2.487004 94.649745 4.813632 -1.663122 -23.036733 -6.511082 -4.581286 19.565756 -1.477147 -5.956511 -9.627689 0.000000 -0.000000 0.000000 -12.357094 -10.119460 -18.984886 -3.260392 -12.959929 26.126323 4.498022 -0.816407 -14.293194 0.000000 -0.000000 0.000000 4.404460 4.774779 17.872165 2.548680 -5.230629 9.251378 1.418012 -0.445310 -3.580300 1.327158 8.863392 22.298776 5.293674 3.582344 12.454182 -16.590316 -25.342395 1.830644 -74.331835 -26.560101 26.341980 -1.422579 -30.417571 11.876738 -11.432695 6.371109 -29.753949 15.670437 21.421292 6.770866 72.040138 20.761807 19.960520 -13.400297 34.283706 -16.289016 1.004618 -1.646001 -53.233193 
0.236579 -0.354472 0.953865 -169.916601 -2.589746 94.632786 4.731592 -2.040568 -23.313123 -6.679220 -4.762275 19.841512 -1.415154 -6.104627 -9.652404 0.000000 -0.000000 0.000000 -12.518832 -10.175927 -18.827074 -3.405736 -13.267223 26.341447 4.478847 -1.137207 -14.412679 0.000000 -0.000000 0.000000 4.522348 4.959392 17.872008 2.535343 -5.241331 9.160492 1.426936 -0.523696 -3.597368 1.411064 9.059738 22.106829 5.298391 3.860954 12.214206 -16.695699 -25.326680 1.786706 -74.272065 -26.407567 26.424665 -1.130815 -30.671031 12.044302 -12.271228 6.550239 -29.862491 15.780123 21.430370 6.670820 71.859544 20.696101 20.005795 -13.360164 34.150936 -16.367260 0.826636 -1.748362 -53.387602 
0.235749 -0.354666 0.953781 -169.251972 -2.674933 94.442269 4.580396 -2.313341 -23.331874 -6.828422 -5.027313 20.024753 -1.418849 -6.209147 -9.695971 0.000000 -0.000000 0.000000 -12.691950 -10.241292 -18.450518 -3.560384 -13.558291 26.422701 4.571965 -1.306375 -14.502931 0.000000 -0.000000 0.000000 4.605865 4.896771 17.928577 2.510076 -5.276836 9.375684 1.360691 -0.356053 -3.710362 1.579837 9.371661 21.722253 5.095831 4.194116 12.178931 -16.688821 -25.376435 1.698984 -74.199411 -26.383053 26.542825 -0.778726 -30.802650 12.495668 -13.099560 6.355910 -30.297860 15.720133 21.503469 6.711928 71.777632 20.870458 20.072929 -13.366780 33.970022 -16.034693 1.143891 -1.637150 -53.669537 
0.235000 -0.354643 0.953614 -168.704804 -2.646468 94.354411 4.532882 -2.527828 -23.468448 -6.854089 -5.107174 20.285669 -1.476247 -6.398705 -9.761811 0.000000 -0.000000 0.000000 -12.740692 -10.352020 -18.202729 -3.609865 -13.770920 26.477237 4.595363 -1.410837 -14.622137 0.000000 -0.000000 0.000000 4.752688 5.012177 17.935325 2.480019 -5.223141 9.493880 1.327421 -0.279752 -3.843666 1.674665 9.705671 21.436183 5.079609 4.554844 11.998027 -16.676323 -25.548299 1.717236 -74.264850 -26.383798 26.580562 -0.406026 -30.650507 12.500807 -13.868302 5.481102 -30.625753 15.600668 21.679875 6.728467 71.679319 20.729631 19.985035 -13.552812 34.006350 -16.105351 2.036192 -1.078129 -54.150477 
0.234419 -0.354751 0.953487 -168.275034 -2.692849 94.333620 4.455618 -2.867605 -23.637960 -6.918727 -5.262327 20.498613 -1.514493 -6.306824 -9.725477 0.000000 -0.000000 0.000000 -12.847095 -10.384458 -18.086519 -3.627119 -13.851522 26.542601 4.587607 -1.713065 -14.677030 0.000000 -0.000000 0.000000 4.761380 5.075540 18.111715 2.384654 -5.115520 9.220902 1.340933 -0.276691 -3.786877 1.674692 10.008523 20.935632 4.946659 5.115957 12.004090 -16.671260 -25.476664 1.536094 -74.330928 -26.316670 26.658084 -0.703017 -30.438759 12.658067 -13.661032 5.019425 -30.666733 15.498784 21.690001 6.396042 71.764057 20.625921 20.263683 -13.424067 33.829417 -16.139562 2.102823 -1.384446 -53.873948 
0.233926 -0.354694 0.953379 -167.909862 -2.646516 94.362775 4.454463 -3.130637 -23.832738 -6.927732 -5.403051 20.707420 -1.480324 -6.277511 -9.803606 0.000000 -0.000000 0.000000 -12.863940 -10.431108 -17.987155 -3.624528 -14.057506 26.546741 4.606017 -1.788783 -14.723760 0.000000 -0.000000 0.000000 4.804241 5.242855 18.062340 2.357219 -5.038118 9.196137 1.341474 -0.233375 -3.782334 1.749554 10.500164 20.576768 4.866028 5.436196 11.952488 -16.530658 -25.585567 1.435464 -74.474492 -26.299734 26.740984 -0.469920 -30.285371 12.851722 -13.994083 4.624087 -30.944868 15.428030 21.739078 6.525947 71.806449 20.770490 20.196784 -13.575619 33.760407 -16.111077 2.473699 -1.511099 -53.854652 
0.233506 -0.354744 0.953457 -167.662543 -2.612061 94.333068 4.411286 -3.217493 -23.926883 -6.964047 -5.516573 20.910018 -1.488469 -6.259100 -9.931496 0.000000 -0.000000 0.000000 -12.882559 -10.548672 -17.850655 -3.623519 -14.168635 26.530934 4.622695 -1.794023 -14.805773 0.000000 -0.000000 0.000000 4.867662 5.339951 18.075583 2.283290 -4.947132 9.283661 1.283531 -0.232371 -3.853717 1.834312 11.181002 20.012832 4.608283 5.812225 12.143030 -16.494690 -25.513972 1.441086 -74.340770 -26.236948 26.793419 -0.470780 -30.506975 13.624263 -14.589846 3.855034 -31.567054 15.605257 21.651818 6.487693 71.652923 20.925959 20.220400 -13.176610 33.589752 -15.618255 2.529591 -0.914025 -54.575905 
0.232992 -0.354567 0.953504 -167.314777 -2.605003 94.274719 4.328088 -3.414520 -23.944409 -6.965700 -5.783717 21.008097 -1.458186 -6.192202 -9.922929 0.000000 -0.000000 0.000000 -12.928423 -10.662318 -17.591736 -3.568038 -14.218863 26.392995 4.601622 -1.995574 -14.804566 0.000000 -0.000000 0.000000 4.867398 5.365528 18.204137 2.264257 -4.942454 9.171638 1.219225 -0.051378 -3.887021 1.909640 11.931694 19.880327 4.446731 6.258417 11.867174 -16.429864 -25.569382 1.488415 -74.149216 -26.450570 26.932340 -0.535141 -30.383949 14.851152 -15.544838 3.105514 -33.201508 15.860004 21.690384 6.848768 71.482668 21.084100 20.270523 -13.426518 33.724746 -15.350704 2.243894 -1.351145 -55.201742 
0.233260 -0.354672 0.953157 -167.269645 -2.502268 94.526116 4.575528 -3.525338 -24.286635 -7.049420 -5.576570 21.090613 -1.521666 -6.184720 -9.954271 0.000000 -0.000000 0.000000 -12.819231 -10.370855 -17.890373 -3.645944 -14.496267 26.523689 4.628250 -2.034597 -14.790979 0.000000 -0.000000 0.000000 4.676300 5.638882 18.041464 2.366841 -4.709732 8.905310 1.276424 -0.013535 -3.661883 1.944861 12.787867 19.537659 4.174523 6.337934 11.835596 -16.353620 -25.610161 1.377187 -74.525887 -26.589027 27.182266 0.002737 -29.882483 14.770023 -16.033826 3.146799 -33.086911 15.946199 21.353432 6.745755 71.597202 21.287287 20.466160 -13.396130 33.539402 -14.894069 2.296152 -1.467547 -55.477199 
